<svg version="1.1" viewBox="0.0 0.0 960.0 540.0" fill="none" stroke="none" stroke-linecap="square" stroke-miterlimit="10" xmlns:xlink="http://www.w3.org/1999/xlink" xmlns="http://www.w3.org/2000/svg"><clipPath id="g22f848dfb58_0_410.0"><path d="m0 0l960.0 0l0 540.0l-960.0 0l0 -540.0z" clip-rule="nonzero"/></clipPath><g clip-path="url(#g22f848dfb58_0_410.0)"><path fill="#000000" d="m0 0l960.0 0l0 540.0l-960.0 0z" fill-rule="evenodd"/><path fill="#2f1062" d="m514.73474 110.462494l183.55902 103.87401l-11.559021 20.472443l-183.55905 -103.87401z" fill-rule="evenodd"/><path stroke="#ffffff" stroke-width="2.0" stroke-linejoin="round" stroke-linecap="butt" d="m514.73474 110.462494l183.55902 103.87401l-11.559021 20.472443l-183.55905 -103.87401z" fill-rule="evenodd"/><path fill="#2f1062" d="m630.2376 214.632l0 0c0 -23.456879 19.015564 -42.472443 42.472412 -42.472443l0 0c11.264404 0 22.067444 4.474762 30.032593 12.439896c7.965088 7.9651184 12.43988 18.768158 12.43988 30.032547l0 0c0 23.456879 -19.015564 42.472427 -42.472473 42.472427l0 0c-23.456848 0 -42.472412 -19.015549 -42.472412 -42.472427z" fill-rule="evenodd"/><path stroke="#ffffff" stroke-width="1.0" stroke-linejoin="round" stroke-linecap="butt" d="m630.2376 214.632l0 0c0 -23.456879 19.015564 -42.472443 42.472412 -42.472443l0 0c11.264404 0 22.067444 4.474762 30.032593 12.439896c7.965088 7.9651184 12.43988 18.768158 12.43988 30.032547l0 0c0 23.456879 -19.015564 42.472427 -42.472473 42.472427l0 0c-23.456848 0 -42.472412 -19.015549 -42.472412 -42.472427z" fill-rule="evenodd"/><path fill="#2f1062" d="m321.11188 197.67264l196.75592 -76.00001l8.472412 21.952751l-196.75589 76.0z" fill-rule="evenodd"/><path stroke="#ffffff" stroke-width="2.0" stroke-linejoin="round" stroke-linecap="butt" d="m321.11188 197.67264l196.75592 -76.00001l8.472412 21.952751l-196.75589 76.0z" fill-rule="evenodd"/><path fill="#2f1062" d="m303.63712 199.2605l182.64566 105.51181l-11.779541 20.37796l-182.64566 -105.511826z" fill-rule="evenodd"/><path stroke="#ffffff" stroke-width="2.0" stroke-linejoin="round" stroke-linecap="butt" d="m303.63712 199.2605l182.64566 105.51181l-11.779541 20.37796l-182.64566 -105.511826z" fill-rule="evenodd"/><path fill="#000000" fill-opacity="0.0" d="m903.12494 285.0926l-82.57208 -143.03072" fill-rule="evenodd"/><path stroke="#ffffff" stroke-width="3.0" stroke-linejoin="round" stroke-linecap="butt" d="m894.1255 269.5038l-64.57324 -111.853165" fill-rule="evenodd"/><path fill="#ffffff" stroke="#ffffff" stroke-width="3.0" stroke-linecap="butt" d="m889.83405 271.98126l11.098145 9.31311l-2.5153198 -14.268005z" fill-rule="evenodd"/><path fill="#ffffff" stroke="#ffffff" stroke-width="3.0" stroke-linecap="butt" d="m833.8437 155.1732l-11.098145 -9.31311l2.5153198 14.268005z" fill-rule="evenodd"/><path fill="#000000" fill-opacity="0.0" d="m896.70734 273.9622l-70.036865 -121.30292" fill-rule="evenodd"/><path stroke="#ffffff" stroke-width="4.0" stroke-linejoin="round" stroke-linecap="butt" d="m896.70734 273.9622l-70.036865 -121.30292" fill-rule="evenodd"/><path fill="#000000" fill-opacity="0.0" d="m802.41113 247.87004l0 0c-8.041382 -13.925964 12.0546875 -40.57689 44.885925 -59.52649l0 0c32.831177 -18.949615 65.964905 -23.02208 74.00629 -9.096115l0 0c8.041382 13.925964 -12.0546875 40.57689 -44.885925 59.52649l0 0c-32.831177 18.949615 -65.964966 23.022064 -74.00629 9.096115z" fill-rule="evenodd"/><path stroke="#ffffff" stroke-width="3.0" stroke-linejoin="round" stroke-linecap="butt" d="m802.41113 247.87004l0 0c-8.041382 -13.925964 12.0546875 -40.57689 44.885925 -59.52649l0 0c32.831177 -18.949615 65.964905 -23.02208 74.00629 -9.096115l0 0c8.041382 13.925964 -12.0546875 40.57689 -44.885925 59.52649l0 0c-32.831177 18.949615 -65.964966 23.022064 -74.00629 9.096115z" fill-rule="evenodd"/><path fill="#000000" fill-opacity="0.0" d="m815.885 240.10533l0 0c-6.230713 -10.766205 9.296448 -31.373184 34.68097 -46.026947l0 0c25.38446 -14.653778 51.01367 -17.805267 57.244385 -7.0390472l0 0c6.230774 10.76622 -9.296448 31.373184 -34.68091 46.026962l0 0c-25.38446 14.653763 -51.01367 17.805252 -57.244446 7.039032z" fill-rule="evenodd"/><path stroke="#ffffff" stroke-width="3.0" stroke-linejoin="round" stroke-linecap="butt" d="m815.885 240.10533l0 0c-6.230713 -10.766205 9.296448 -31.373184 34.68097 -46.026947l0 0c25.38446 -14.653778 51.01367 -17.805267 57.244385 -7.0390472l0 0c6.230774 10.76622 -9.296448 31.373184 -34.68091 46.026962l0 0c-25.38446 14.653763 -51.01367 17.805252 -57.244446 7.039032z" fill-rule="evenodd"/><path fill="#ffffff" d="m821.5808 213.56113l0 0c0 -22.233612 18.023865 -40.257523 40.257507 -40.257523l0 0c10.676941 0 20.916626 4.2414093 28.46637 11.791168c7.5497437 7.5497437 11.791138 17.789398 11.791138 28.466354l0 0c0 22.233612 -18.023926 40.257523 -40.257507 40.257523l0 0c-22.233643 0 -40.257507 -18.02391 -40.257507 -40.257523z" fill-rule="evenodd"/><path stroke="#000000" stroke-width="4.0" stroke-linejoin="round" stroke-linecap="butt" d="m821.5808 213.56113l0 0c0 -22.233612 18.023865 -40.257523 40.257507 -40.257523l0 0c10.676941 0 20.916626 4.2414093 28.46637 11.791168c7.5497437 7.5497437 11.791138 17.789398 11.791138 28.466354l0 0c0 22.233612 -18.023926 40.257523 -40.257507 40.257523l0 0c-22.233643 0 -40.257507 -18.02391 -40.257507 -40.257523z" fill-rule="evenodd"/><path fill="#000000" fill-opacity="0.0" d="m876.4144 238.79727l0 0c32.827454 -18.950836 52.91974 -45.604996 44.87732 -59.533722l-59.43933 34.313553z" fill-rule="evenodd"/><path fill="#000000" fill-opacity="0.0" d="m876.4144 238.79727l0 0c32.827454 -18.950836 52.91974 -45.604996 44.87732 -59.533722" fill-rule="evenodd"/><path stroke="#000000" stroke-width="8.0" stroke-linejoin="round" stroke-linecap="butt" d="m876.4144 238.79727l0 0c32.827454 -18.950836 52.91974 -45.604996 44.87732 -59.533722" fill-rule="evenodd"/><path fill="#000000" fill-opacity="0.0" d="m876.4144 238.79727l0 0c-32.827454 18.950836 -65.959045 23.022095 -74.0014 9.093369l59.439392 -34.313538z" fill-rule="evenodd"/><path fill="#000000" fill-opacity="0.0" d="m876.4144 238.79727l0 0c-32.827454 18.950836 -65.959045 23.022095 -74.0014 9.093369" fill-rule="evenodd"/><path stroke="#000000" stroke-width="8.0" stroke-linejoin="round" stroke-linecap="butt" d="m876.4144 238.79727l0 0c-32.827454 18.950836 -65.959045 23.022095 -74.0014 9.093369" fill-rule="evenodd"/><path fill="#000000" fill-opacity="0.0" d="m876.4144 238.78418l0 0c32.827454 -18.950836 52.91974 -45.604996 44.87732 -59.533722l-59.43933 34.313553z" fill-rule="evenodd"/><path fill="#000000" fill-opacity="0.0" d="m876.4144 238.78418l0 0c32.827454 -18.950836 52.91974 -45.604996 44.87732 -59.533722" fill-rule="evenodd"/><path stroke="#ffffff" stroke-width="3.0" stroke-linejoin="round" stroke-linecap="butt" d="m876.4144 238.78418l0 0c32.827454 -18.950836 52.91974 -45.604996 44.87732 -59.533722" fill-rule="evenodd"/><path fill="#000000" fill-opacity="0.0" d="m876.4144 238.78418l0 0c-32.827454 18.950836 -65.959045 23.022095 -74.0014 9.093369l59.439392 -34.313538z" fill-rule="evenodd"/><path fill="#000000" fill-opacity="0.0" d="m876.4144 238.78418l0 0c-32.827454 18.950836 -65.959045 23.022095 -74.0014 9.093369" fill-rule="evenodd"/><path stroke="#ffffff" stroke-width="3.0" stroke-linejoin="round" stroke-linecap="butt" d="m876.4144 238.78418l0 0c-32.827454 18.950836 -65.959045 23.022095 -74.0014 9.093369" fill-rule="evenodd"/><path fill="#000000" fill-opacity="0.0" d="m873.1203 233.08682l0 0c25.395996 -14.658218 40.940674 -35.275864 34.71997 -46.05081l-45.98352 26.541046z" fill-rule="evenodd"/><path fill="#000000" fill-opacity="0.0" d="m873.1203 233.08682l0 0c25.395996 -14.658218 40.940674 -35.275864 34.71997 -46.05081" fill-rule="evenodd"/><path stroke="#000000" stroke-width="8.0" stroke-linejoin="round" stroke-linecap="butt" d="m873.1203 233.08682l0 0c25.395996 -14.658218 40.940674 -35.275864 34.71997 -46.05081" fill-rule="evenodd"/><path fill="#000000" fill-opacity="0.0" d="m873.1203 233.08682l0 0c-25.395996 14.658218 -51.026367 17.806229 -57.24707 7.0312805l45.98352 -26.541046z" fill-rule="evenodd"/><path fill="#000000" fill-opacity="0.0" d="m873.1203 233.08682l0 0c-25.395996 14.658218 -51.026367 17.806229 -57.24707 7.0312805" fill-rule="evenodd"/><path stroke="#000000" stroke-width="8.0" stroke-linejoin="round" stroke-linecap="butt" d="m873.1203 233.08682l0 0c-25.395996 14.658218 -51.026367 17.806229 -57.24707 7.0312805" fill-rule="evenodd"/><path fill="#000000" fill-opacity="0.0" d="m873.1203 233.06674l0 0c25.395996 -14.658218 40.940674 -35.27588 34.71997 -46.050827l-45.98352 26.541046z" fill-rule="evenodd"/><path fill="#000000" fill-opacity="0.0" d="m873.1203 233.06674l0 0c25.395996 -14.658218 40.940674 -35.27588 34.71997 -46.050827" fill-rule="evenodd"/><path stroke="#ffffff" stroke-width="3.0" stroke-linejoin="round" stroke-linecap="butt" d="m873.1203 233.06674l0 0c25.395996 -14.658218 40.940674 -35.27588 34.71997 -46.050827" fill-rule="evenodd"/><path fill="#000000" fill-opacity="0.0" d="m873.1203 233.06674l0 0c-25.395996 14.658203 -51.026367 17.806213 -57.24707 7.0312653l45.98352 -26.541046z" fill-rule="evenodd"/><path fill="#000000" fill-opacity="0.0" d="m873.1203 233.06674l0 0c-25.395996 14.658203 -51.026367 17.806213 -57.24707 7.0312653" fill-rule="evenodd"/><path stroke="#ffffff" stroke-width="3.0" stroke-linejoin="round" stroke-linecap="butt" d="m873.1203 233.06674l0 0c-25.395996 14.658203 -51.026367 17.806213 -57.24707 7.0312653" fill-rule="evenodd"/><path fill="#000000" fill-opacity="0.0" d="m864.53345 218.21501l-37.70227 -65.27985" fill-rule="evenodd"/><path stroke="#ffffff" stroke-width="4.0" stroke-linejoin="round" stroke-linecap="butt" d="m864.53345 218.21501l-37.70227 -65.27985" fill-rule="evenodd"/><g filter="url(#shadowFilter-g22f848dfb58_0_410.1)"><use xlink:href="#g22f848dfb58_0_410.1" transform="matrix(1.0 0.0 0.0 1.0 0.0 12.0)"/></g><defs><filter id="shadowFilter-g22f848dfb58_0_410.1" filterUnits="userSpaceOnUse"><feGaussianBlur in="SourceAlpha" stdDeviation="5.0" result="blur"/><feComponentTransfer in="blur" color-interpolation-filters="sRGB"><feFuncR type="linear" slope="0" intercept="0.0"/><feFuncG type="linear" slope="0" intercept="0.0"/><feFuncB type="linear" slope="0" intercept="0.0"/><feFuncA type="linear" slope="0.5" intercept="0"/></feComponentTransfer></filter></defs><g id="g22f848dfb58_0_410.1"><path fill="#000000" fill-opacity="0.0" d="m780.5087 47.50656l162.7716 0l0 61.921257l-162.7716 0z" fill-rule="evenodd"/><path fill="#ffffff" d="m814.40454 87.22656l0 -0.515625l2.5625 -1.28125l0 -17.53125l-2.5625 -1.28125l0 -0.515625l8.0 0l0 0.515625l-2.5625 1.28125l0 7.546875l10.890625 0l0 -7.546875l-2.5625 -1.28125l0 -0.515625l8.0 0l0 0.515625l-2.5625 1.28125l0 17.53125l2.5625 1.28125l0 0.515625l-8.0 0l0 -0.515625l2.5625 -1.28125l0 -8.21875l-10.890625 0l0 8.21875l2.5625 1.28125l0 0.515625l-8.0 0zm28.763794 -18.59375q-0.828125 0 -1.375 -0.5625q-0.53125 -0.5625 -0.53125 -1.359375q0 -0.828125 0.53125 -1.375q0.546875 -0.546875 1.375 -0.546875q0.84375 0 1.375 0.546875q0.546875 0.546875 0.546875 1.375q0 0.796875 -0.546875 1.359375q-0.53125 0.5625 -1.375 0.5625zm-3.1875 18.59375l0 -0.515625l2.015625 -1.015625l0 -9.546875l-1.921875 -1.65625l0 -0.21875l4.28125 -1.765625l0.1875 0l0 13.1875l2.015625 1.015625l0 0.515625l-6.578125 0zm16.531677 -4.546875q-1.40625 0 -2.59375 -0.515625q-0.625 0.265625 -0.90625 0.6875q-0.265625 0.40625 -0.265625 0.890625q0 1.59375 2.265625 1.59375l3.84375 0q2.328125 0 3.4375 1.03125q1.109375 1.015625 1.109375 3.03125q0 1.375 -0.921875 2.640625q-0.90625 1.265625 -2.59375 2.0625q-1.671875 0.8125 -3.984375 0.8125q-3.03125 0 -4.359375 -1.109375q-1.328125 -1.109375 -1.328125 -2.703125q0 -1.1875 0.578125 -2.046875l2.203125 -1.46875l0 -0.140625q-1.21875 -0.25 -1.859375 -0.9375q-0.640625 -0.6875 -0.640625 -1.6875q0 -1.203125 0.84375 -2.046875l1.71875 -0.890625l0 -0.1875q-1.015625 -0.671875 -1.625 -1.71875q-0.609375 -1.0625 -0.609375 -2.375q0 -1.453125 0.734375 -2.59375q0.734375 -1.15625 2.03125 -1.828125q1.296875 -0.671875 2.921875 -0.671875q0.671875 0 1.453125 0.15625q0.796875 0.15625 1.375 0.421875l4.796875 -0.265625l0 1.734375l-2.984375 -0.1875l-0.125 0.125q0.515625 0.578125 0.84375 1.40625q0.34375 0.828125 0.34375 1.703125q0 1.4375 -0.734375 2.59375q-0.734375 1.140625 -2.03125 1.8125q-1.296875 0.671875 -2.9375 0.671875zm0.328125 -1.3125q1.28125 0 2.015625 -1.09375q0.734375 -1.109375 0.734375 -2.578125q0 -1.765625 -0.96875 -2.828125q-0.953125 -1.078125 -2.328125 -1.078125q-1.375 0 -2.109375 1.109375q-0.734375 1.09375 -0.734375 2.59375q0 1.671875 0.953125 2.78125q0.96875 1.09375 2.4375 1.09375zm-4.359375 9.375q0 1.40625 1.109375 2.328125q1.109375 0.9375 2.703125 0.9375q1.4375 0 2.5 -0.5625q1.078125 -0.5625 1.671875 -1.46875q0.59375 -0.90625 0.59375 -1.9375q0 -1.40625 -0.75 -1.953125q-0.75 -0.546875 -2.703125 -0.546875l-3.421875 0q-0.09375 0 -0.15625 0q-0.875 0.515625 -1.21875 1.296875q-0.328125 0.796875 -0.328125 1.90625zm14.464539 -3.515625l0 -0.515625l2.015625 -1.015625l0 -18.828125l-1.921875 -1.65625l0 -0.21875l4.296875 -1.765625l0.1875 0l0 11.640625l0.125 0q1.21875 -1.203125 2.359375 -1.78125q1.140625 -0.578125 2.515625 -0.578125q1.875 0 3.078125 0.953125q1.203125 0.9375 1.203125 2.796875l0 9.4375l2.015625 1.015625l0 0.515625l-6.84375 0l0 -0.515625l2.265625 -0.921875l0 -8.03125q0 -1.40625 -0.875 -2.140625q-0.875 -0.75 -2.296875 -0.75q-0.859375 0 -1.90625 0.296875q-1.03125 0.28125 -1.640625 0.828125l0 9.796875l2.28125 0.921875l0 0.515625l-6.859375 0zm18.686523 -7.109375l0 -2.234375l8.8125 0l0 2.234375l-8.8125 0zm12.640625 7.109375l0 -0.578125l7.203125 -12.40625l-5.28125 0l-1.4375 3.1875l-0.515625 0l0.359375 -4.921875l0.15625 0q0.421875 0.09375 1.03125 0.203125q0.609375 0.109375 0.984375 0.109375l8.031311 0l0 0.578125l-7.203186 12.421875l5.765625 0l1.187561 -3.421875l0.515625 0l0 4.828125l-10.796936 0z" fill-rule="nonzero"/><path fill="#ffffff" d="m832.92255 130.3922q-1.25 0 -2.59375 -0.328125q-1.34375 -0.3125 -3.078125 -1.28125q-1.71875 -0.9531326 -4.09375 -2.8750076q-2.84375 -0.1875 -5.0625 -1.640625q-2.203125 -1.453125 -3.484375 -3.8125q-1.28125 -2.375 -1.28125 -5.390625q0 -2.359375 0.796875 -4.34375q0.8125 -1.984375 2.25 -3.4375q1.4375 -1.46875 3.375 -2.28125q1.9375 -0.8125 4.234375 -0.8125q2.3125 0 4.265625 0.8125q1.953125 0.8125 3.390625 2.28125q1.4375 1.453125 2.234375 3.4375q0.796875 1.984375 0.796875 4.34375q0 2.59375 -0.96875 4.71875q-0.953125 2.125 -2.671875 3.625q-1.703125 1.484375 -3.96875 2.125q1.828125 1.40625 3.171875 2.234375q1.34375 0.8281326 2.453125 1.1875076q1.125 0.359375 2.1875 0.359375q0.671875 0 1.171875 -0.09375q0.515625 -0.078125 0.875 -0.203125l0 0.515625q-0.734375 0.375 -1.765625 0.609375q-1.015625 0.25 -2.234375 0.25zm-8.265625 -6.0468826q2.046875 0 3.59375 -1.015625q1.5625 -1.03125 2.4375 -2.890625q0.890625 -1.859375 0.890625 -4.375q0 -3.109375 -1.09375 -5.421875q-1.09375 -2.328125 -2.9375 -3.609375q-1.828125 -1.28125 -4.09375 -1.28125q-2.0625 0 -3.640625 1.015625q-1.578125 1.0 -2.484375 2.859375q-0.890625 1.859375 -0.890625 4.390625q0 3.09375 1.09375 5.4375q1.109375 2.328125 2.96875 3.609375q1.859375 1.28125 4.15625 1.28125zm19.46466 1.59375q-1.890625 0 -3.09375 -0.9375q-1.203125 -0.9375 -1.203125 -2.796875l0 -9.46875l-2.015625 -1.0l0 -0.515625l4.578125 0l0 9.484375q0 1.40625 0.875 2.140625q0.890625 0.734375 2.296875 0.734375q0.859375 0 1.890625 -0.28125q1.046875 -0.296875 1.65625 -0.84375l0 -9.71875l-2.265625 -1.0l0 -0.515625l4.828125 0l0 12.96875l2.28125 0.921875l0 0.515625l-4.84375 0l0 -2.015625l-0.15625 0q-1.21875 1.21875 -2.359375 1.78125q-1.125 0.546875 -2.46875 0.546875zm15.733337 0q-1.5 0 -2.5 -0.875q-0.984375 -0.875 -0.984375 -2.453125q0 -1.5625 1.171875 -2.703125q1.171875 -1.15625 3.921875 -1.796875l3.03125 -0.703125l0 -2.34375q0 -1.078125 -0.875 -1.859375q-0.875 -0.796875 -2.0 -0.796875q-1.21875 0 -1.703125 0.65625q-0.46875 0.65625 -0.46875 1.75l0 0.890625l-0.15625 0.15625l-1.671875 0q-0.484375 0 -0.65625 -0.15625q-0.171875 -0.15625 -0.171875 -0.734375q0 -0.703125 0.40625 -1.4375q0.421875 -0.734375 1.28125 -1.28125q0.90625 -0.578125 1.875 -0.953125q0.984375 -0.390625 2.09375 -0.390625q1.125 0 2.1875 0.328125q1.078125 0.3125 1.75 1.0625q0.671875 0.75 0.671875 2.09375l0 9.09375q0.234375 0.21875 0.640625 0.390625q0.421875 0.15625 1.15625 0.15625l1.21875 0l0.09375 0.0625l0 0.09375q-0.390625 0.703125 -1.140625 1.234375q-0.75 0.515625 -1.84375 0.515625q-0.984375 0 -1.609375 -0.515625q-0.625 -0.53125 -0.875 -1.390625l-0.203125 0q-0.828125 0.828125 -2.0625 1.375q-1.21875 0.53125 -2.578125 0.53125zm-0.984375 -3.953125q0 1.984375 2.40625 1.984375q0.765625 0 1.515625 -0.15625q0.75 -0.171875 1.703125 -0.59375l0 -4.734375q-2.546875 0.484375 -3.734375 1.015625q-1.1875 0.53125 -1.546875 1.140625q-0.34375 0.59375 -0.34375 1.34375zm18.46051 3.953125q-1.5 0 -2.59375 -0.25q-1.078125 -0.25 -2.203125 -0.828125l0 -3.59375l0.453125 0l1.015625 1.765625q1.0 1.765625 3.234375 1.765625q1.28125 0 2.0 -0.609375q0.71875 -0.609375 0.71875 -1.671875q0 -0.921875 -0.453125 -1.4375q-0.4375 -0.515625 -1.265625 -0.90625q-0.8125 -0.40625 -1.921875 -0.921875q-1.640625 -0.734375 -2.515625 -1.609375q-0.875 -0.875 -0.875 -2.484375q0 -1.171875 0.671875 -2.125q0.671875 -0.96875 1.703125 -1.546875q1.046875 -0.578125 2.15625 -0.578125q1.1875 0 2.171875 0.296875q1.0 0.28125 2.03125 0.796875l0 3.484375l-0.453125 0l-1.0625 -1.703125q-0.53125 -0.859375 -1.171875 -1.234375q-0.640625 -0.390625 -1.375 -0.390625q-1.09375 0 -1.75 0.546875q-0.65625 0.53125 -0.65625 1.5q0 1.078125 0.78125 1.640625q0.78125 0.5625 2.296875 1.265625q0.890625 0.453125 1.796875 0.90625q0.921875 0.4375 1.5 1.265625q0.59375 0.8125 0.59375 2.3125q0 1.40625 -0.765625 2.390625q-0.765625 0.96875 -1.890625 1.46875q-1.109375 0.484375 -2.171875 0.484375zm11.995911 0q-1.5 0 -2.5 -0.875q-0.984375 -0.875 -0.984375 -2.453125q0 -1.5625 1.171875 -2.703125q1.171875 -1.15625 3.921875 -1.796875l3.03125 -0.703125l0 -2.34375q0 -1.078125 -0.875 -1.859375q-0.875 -0.796875 -2.0 -0.796875q-1.21875 0 -1.703125 0.65625q-0.46875 0.65625 -0.46875 1.75l0 0.890625l-0.15625 0.15625l-1.671875 0q-0.484375 0 -0.65625 -0.15625q-0.171875 -0.15625 -0.171875 -0.734375q0 -0.703125 0.40625 -1.4375q0.421875 -0.734375 1.28125 -1.28125q0.90625 -0.578125 1.875 -0.953125q0.984375 -0.390625 2.09375 -0.390625q1.125 0 2.1875 0.328125q1.078125 0.3125 1.75 1.0625q0.671875 0.75 0.671875 2.09375l0 9.09375q0.234375 0.21875 0.640625 0.390625q0.421875 0.15625 1.15625 0.15625l1.21875 0l0.09375 0.0625l0 0.09375q-0.390625 0.703125 -1.140625 1.234375q-0.75 0.515625 -1.84375 0.515625q-0.984375 0 -1.609375 -0.515625q-0.625 -0.53125 -0.875 -1.390625l-0.203125 0q-0.828125 0.828125 -2.0625 1.375q-1.21875 0.53125 -2.578125 0.53125zm-0.984375 -3.953125q0 1.984375 2.40625 1.984375q0.765625 0 1.515625 -0.15625q0.75 -0.171875 1.703125 -0.59375l0 -4.734375q-2.546875 0.484375 -3.734375 1.015625q-1.1875 0.53125 -1.546875 1.140625q-0.34375 0.59375 -0.34375 1.34375zm13.30426 3.640625l0 -0.515625l2.03125 -1.015625l0 -9.546875l-1.921875 -1.65625l0 -0.21875l3.96875 -1.765625l0.1875 0l0.28125 2.71875l0.140625 0q0.734375 -1.1875 1.34375 -1.78125q0.625 -0.59375 1.171875 -0.765625q0.546875 -0.171875 1.09375 -0.171875q0.25 0 0.578125 0.09375q0.34375 0.09375 0.578125 0.1875q0.34375 0.171875 0.640625 0.390625q0.3125 0.21875 0.3125 0.515625q0 0.28125 -0.125 0.578125l-0.640625 1.5625l-0.21875 0l-1.21875 -0.484375q-0.359375 -0.15625 -0.703125 -0.1875q-0.328125 -0.03125 -0.640625 -0.03125q-1.34375 0 -2.28125 1.375l0 9.1875l2.28125 1.015625l0 0.515625l-6.859375 0z" fill-rule="nonzero"/></g><path fill="#2f1062" d="m232.00267 213.59676l0 0c0 -40.877777 33.137985 -74.01575 74.01576 -74.01575l0 0c19.630188 0 38.45639 7.798065 52.337036 21.67871c13.880646 13.880646 21.67871 32.706833 21.67871 52.337036l0 0c0 40.87776 -33.138 74.01573 -74.01575 74.01573l0 0c-40.877777 0 -74.01576 -33.13797 -74.01576 -74.01573z" fill-rule="evenodd"/><path stroke="#ffffff" stroke-width="1.0" stroke-linejoin="round" stroke-linecap="butt" d="m232.00267 213.59676l0 0c0 -40.877777 33.137985 -74.01575 74.01576 -74.01575l0 0c19.630188 0 38.45639 7.798065 52.337036 21.67871c13.880646 13.880646 21.67871 32.706833 21.67871 52.337036l0 0c0 40.87776 -33.138 74.01573 -74.01575 74.01573l0 0c-40.877777 0 -74.01576 -33.13797 -74.01576 -74.01573z" fill-rule="evenodd"/><path fill="#7e2481" d="m250.38553 214.6348l0 0c0 -30.719208 24.902832 -55.622055 55.62204 -55.622055l0 0c14.751892 0 28.899597 5.8601685 39.33075 16.29132c10.431152 10.431168 16.29132 24.578842 16.29132 39.330734l0 0c0 30.719208 -24.902863 55.62204 -55.62207 55.62204l0 0c-30.719208 0 -55.62204 -24.902832 -55.62204 -55.62204z" fill-rule="evenodd"/><path stroke="#ffffff" stroke-width="1.0" stroke-linejoin="round" stroke-linecap="butt" d="m250.38553 214.6348l0 0c0 -30.719208 24.902832 -55.622055 55.62204 -55.622055l0 0c14.751892 0 28.899597 5.8601685 39.33075 16.29132c10.431152 10.431168 16.29132 24.578842 16.29132 39.330734l0 0c0 30.719208 -24.902863 55.62204 -55.62207 55.62204l0 0c-30.719208 0 -55.62204 -24.902832 -55.62204 -55.62204z" fill-rule="evenodd"/><path fill="#2f1062" d="m542.30365 117.43787l-62.771637 201.38583l-22.456696 -6.9606323l62.771667 -201.38583z" fill-rule="evenodd"/><path stroke="#ffffff" stroke-width="2.0" stroke-linejoin="round" stroke-linecap="butt" d="m542.30365 117.43787l-62.771637 201.38583l-22.456696 -6.9606323l62.771667 -201.38583z" fill-rule="evenodd"/><path fill="#2f1062" d="m481.89914 130.79964l0 0c0 -23.456879 19.015564 -42.472443 42.472443 -42.472443l0 0c11.264404 0 22.067383 4.474762 30.032532 12.439888c7.965149 7.9651337 12.43988 18.768166 12.43988 30.032555l0 0c0 23.456879 -19.015564 42.472443 -42.472412 42.472443l0 0c-23.456879 0 -42.472443 -19.015564 -42.472443 -42.472443z" fill-rule="evenodd"/><path stroke="#ffffff" stroke-width="1.0" stroke-linejoin="round" stroke-linecap="butt" d="m481.89914 130.79964l0 0c0 -23.456879 19.015564 -42.472443 42.472443 -42.472443l0 0c11.264404 0 22.067383 4.474762 30.032532 12.439888c7.965149 7.9651337 12.43988 18.768166 12.43988 30.032555l0 0c0 23.456879 -19.015564 42.472443 -42.472412 42.472443l0 0c-23.456879 0 -42.472443 -19.015564 -42.472443 -42.472443z" fill-rule="evenodd"/><path fill="#2f1062" d="m561.29846 136.67473l87.46454 49.51181l-11.559021 20.472443l-87.4646 -49.51181z" fill-rule="evenodd"/><path fill="#7e2481" d="m492.45032 131.40167l0 0c0 -17.629631 14.291626 -31.921265 31.921265 -31.921265l0 0c8.466064 0 16.585327 3.363121 22.571716 9.349518c5.986389 5.986397 9.349548 14.105698 9.349548 22.571747l0 0c0 17.629623 -14.291626 31.92125 -31.921265 31.92125l0 0c-17.629639 0 -31.921265 -14.291626 -31.921265 -31.92125z" fill-rule="evenodd"/><path stroke="#ffffff" stroke-width="1.0" stroke-linejoin="round" stroke-linecap="butt" d="m492.45032 131.40167l0 0c0 -17.629631 14.291626 -31.921265 31.921265 -31.921265l0 0c8.466064 0 16.585327 3.363121 22.571716 9.349518c5.986389 5.986397 9.349548 14.105698 9.349548 22.571747l0 0c0 17.629623 -14.291626 31.92125 -31.921265 31.92125l0 0c-17.629639 0 -31.921265 -14.291626 -31.921265 -31.92125z" fill-rule="evenodd"/><path fill="#b63679" d="m502.54733 130.80219l0 0c0 -12.054588 9.772186 -21.826767 21.826752 -21.826767l0 0c5.7888184 0 11.340576 2.2995987 15.433899 6.392914c4.0933228 4.093315 6.3928833 9.645042 6.3928833 15.433853l0 0c0 12.054596 -9.772156 21.826782 -21.826782 21.826782l0 0c-12.054565 0 -21.826752 -9.772186 -21.826752 -21.826782z" fill-rule="evenodd"/><path stroke="#ffffff" stroke-width="1.0" stroke-linejoin="round" stroke-linecap="butt" d="m502.54733 130.80219l0 0c0 -12.054588 9.772186 -21.826767 21.826752 -21.826767l0 0c5.7888184 0 11.340576 2.2995987 15.433899 6.392914c4.0933228 4.093315 6.3928833 9.645042 6.3928833 15.433853l0 0c0 12.054596 -9.772156 21.826782 -21.826782 21.826782l0 0c-12.054565 0 -21.826752 -9.772186 -21.826752 -21.826782z" fill-rule="evenodd"/><path fill="#2f1062" d="m430.61322 308.41702l0 0c0 -21.073792 17.08368 -38.1575 38.15747 -38.1575l0 0c10.119995 0 19.8255 4.020172 26.981415 11.176086c7.1559143 7.1559143 11.176086 16.86142 11.176086 26.981415l0 0c0 21.073792 -17.08371 38.15747 -38.1575 38.15747l0 0c-21.073792 0 -38.15747 -17.08368 -38.15747 -38.15747z" fill-rule="evenodd"/><path stroke="#ffffff" stroke-width="1.0" stroke-linejoin="round" stroke-linecap="butt" d="m430.61322 308.41702l0 0c0 -21.073792 17.08368 -38.1575 38.15747 -38.1575l0 0c10.119995 0 19.8255 4.020172 26.981415 11.176086c7.1559143 7.1559143 11.176086 16.86142 11.176086 26.981415l0 0c0 21.073792 -17.08371 38.15747 -38.1575 38.15747l0 0c-21.073792 0 -38.15747 -17.08368 -38.15747 -38.15747z" fill-rule="evenodd"/><path fill="#2f1062" d="m526.4227 168.65184l-35.338562 113.291336l-22.456696 -6.9606323l35.338593 -113.291336z" fill-rule="evenodd"/><path fill="#7e2481" d="m640.7888 215.23404l0 0c0 -17.629639 14.291626 -31.921265 31.921204 -31.921265l0 0c8.466064 0 16.585388 3.3631287 22.571777 9.349518c5.986389 5.9864044 9.349487 14.105698 9.349487 22.571747l0 0c0 17.629623 -14.291626 31.92125 -31.921265 31.92125l0 0c-17.629578 0 -31.921204 -14.291626 -31.921204 -31.92125z" fill-rule="evenodd"/><path stroke="#ffffff" stroke-width="1.0" stroke-linejoin="round" stroke-linecap="butt" d="m640.7888 215.23404l0 0c0 -17.629639 14.291626 -31.921265 31.921204 -31.921265l0 0c8.466064 0 16.585388 3.3631287 22.571777 9.349518c5.986389 5.9864044 9.349487 14.105698 9.349487 22.571747l0 0c0 17.629623 -14.291626 31.92125 -31.921265 31.92125l0 0c-17.629578 0 -31.921204 -14.291626 -31.921204 -31.92125z" fill-rule="evenodd"/><path fill="#000000" fill-opacity="0.0" d="m763.39105 215.22888l-611.30707 0" fill-rule="evenodd"/><path stroke="#ffffff" stroke-width="4.0" stroke-linejoin="round" stroke-linecap="butt" d="m763.39105 215.22888l-587.30707 0" fill-rule="evenodd"/><path fill="#ffffff" stroke="#ffffff" stroke-width="4.0" stroke-linecap="butt" d="m176.08398 208.62195l-18.15239 6.6069336l18.15239 6.6069336z" fill-rule="evenodd"/><path fill="#7e2481" d="m441.47763 308.41525l0 0c0 -15.072571 12.21875 -27.29132 27.291351 -27.29132l0 0c7.238098 0 14.179749 2.8753357 19.297882 7.9934387c5.1181335 5.1181335 7.9934387 12.059784 7.9934387 19.297882l0 0c0 15.072601 -12.21875 27.291351 -27.29132 27.291351l0 0c-15.072601 0 -27.291351 -12.21875 -27.291351 -27.291351z" fill-rule="evenodd"/><path stroke="#ffffff" stroke-width="1.0" stroke-linejoin="round" stroke-linecap="butt" d="m441.47763 308.41525l0 0c0 -15.072571 12.21875 -27.29132 27.291351 -27.29132l0 0c7.238098 0 14.179749 2.8753357 19.297882 7.9934387c5.1181335 5.1181335 7.9934387 12.059784 7.9934387 19.297882l0 0c0 15.072601 -12.21875 27.291351 -27.29132 27.291351l0 0c-15.072601 0 -27.291351 -12.21875 -27.291351 -27.291351z" fill-rule="evenodd"/><path fill="#b63679" d="m267.97714 213.60274l0 0c0 -21.012909 17.034332 -38.04724 38.04724 -38.04724l0 0c10.090759 0 19.768219 4.0085297 26.903473 11.143768c7.1352234 7.135254 11.143768 16.812714 11.143768 26.903473l0 0c0 21.012909 -17.034332 38.04724 -38.04724 38.04724l0 0c-21.012909 0 -38.04724 -17.034332 -38.04724 -38.04724z" fill-rule="evenodd"/><path stroke="#ffffff" stroke-width="1.0" stroke-linejoin="round" stroke-linecap="butt" d="m267.97714 213.60274l0 0c0 -21.012909 17.034332 -38.04724 38.04724 -38.04724l0 0c10.090759 0 19.768219 4.0085297 26.903473 11.143768c7.1352234 7.135254 11.143768 16.812714 11.143768 26.903473l0 0c0 21.012909 -17.034332 38.04724 -38.04724 38.04724l0 0c-21.012909 0 -38.04724 -17.034332 -38.04724 -38.04724z" fill-rule="evenodd"/><path fill="#d7456b" d="m284.1928 214.63724l0 0c0 -12.054596 9.772156 -21.826767 21.826752 -21.826767l0 0c5.7888184 0 11.340546 2.299591 15.433868 6.392914c4.0933228 4.0933075 6.392914 9.645035 6.392914 15.433853l0 0c0 12.054596 -9.772186 21.826767 -21.826782 21.826767l0 0c-12.054596 0 -21.826752 -9.772171 -21.826752 -21.826767z" fill-rule="evenodd"/><path stroke="#ffffff" stroke-width="1.0" stroke-linejoin="round" stroke-linecap="butt" d="m284.1928 214.63724l0 0c0 -12.054596 9.772156 -21.826767 21.826752 -21.826767l0 0c5.7888184 0 11.340546 2.299591 15.433868 6.392914c4.0933228 4.0933075 6.392914 9.645035 6.392914 15.433853l0 0c0 12.054596 -9.772186 21.826767 -21.826782 21.826767l0 0c-12.054596 0 -21.826752 -9.772171 -21.826752 -21.826767z" fill-rule="evenodd"/><path fill="#b63679" d="m650.8858 214.63455l0 0c0 -12.054581 9.772217 -21.826767 21.826782 -21.826767l0 0c5.7888184 0 11.340576 2.2996063 15.433838 6.392914c4.0933228 4.0933228 6.3929443 9.645035 6.3929443 15.433853l0 0c0 12.054596 -9.772156 21.826782 -21.826782 21.826782l0 0c-12.054565 0 -21.826782 -9.772186 -21.826782 -21.826782z" fill-rule="evenodd"/><path stroke="#ffffff" stroke-width="1.0" stroke-linejoin="round" stroke-linecap="butt" d="m650.8858 214.63455l0 0c0 -12.054581 9.772217 -21.826767 21.826782 -21.826767l0 0c5.7888184 0 11.340576 2.2996063 15.433838 6.392914c4.0933228 4.0933228 6.3929443 9.645035 6.3929443 15.433853l0 0c0 12.054596 -9.772156 21.826782 -21.826782 21.826782l0 0c-12.054565 0 -21.826782 -9.772186 -21.826782 -21.826782z" fill-rule="evenodd"/><g filter="url(#shadowFilter-g22f848dfb58_0_410.2)"><use xlink:href="#g22f848dfb58_0_410.2" transform="matrix(1.0 0.0 0.0 1.0 0.0 11.99999999999998)"/></g><defs><filter id="shadowFilter-g22f848dfb58_0_410.2" filterUnits="userSpaceOnUse"><feGaussianBlur in="SourceAlpha" stdDeviation="5.0" result="blur"/><feComponentTransfer in="blur" color-interpolation-filters="sRGB"><feFuncR type="linear" slope="0" intercept="0.0"/><feFuncG type="linear" slope="0" intercept="0.0"/><feFuncB type="linear" slope="0" intercept="0.0"/><feFuncA type="linear" slope="0.5" intercept="0"/></feComponentTransfer></filter></defs><g id="g22f848dfb58_0_410.2"><path fill="#000000" fill-opacity="0.0" d="m16.720499 100.44388l162.77165 0l0 61.92125l-162.77165 0z" fill-rule="evenodd"/><path fill="#ffffff" d="m46.34081 140.47638q-2.296875 0 -4.234375 -0.8125q-1.9375 -0.8125 -3.375 -2.265625q-1.4375 -1.453125 -2.25 -3.4375q-0.796875 -1.984375 -0.796875 -4.359375q0 -2.359375 0.796875 -4.34375q0.8125 -1.984375 2.25 -3.4375q1.4375 -1.46875 3.375 -2.28125q1.9375 -0.8125 4.234375 -0.8125q2.3125 0 4.265625 0.8125q1.953125 0.8125 3.390625 2.28125q1.4375 1.453125 2.234375 3.4375q0.796875 1.984375 0.796875 4.34375q0 2.375 -0.796875 4.359375q-0.796875 1.984375 -2.234375 3.4375q-1.4375 1.453125 -3.390625 2.265625q-1.953125 0.8125 -4.265625 0.8125zm0.671875 -1.59375q2.046875 0 3.59375 -1.015625q1.5625 -1.03125 2.4375 -2.890625q0.890625 -1.859375 0.890625 -4.375q0 -3.109375 -1.09375 -5.421875q-1.09375 -2.328125 -2.9375 -3.609375q-1.828125 -1.28125 -4.09375 -1.28125q-2.0625 0 -3.640625 1.015625q-1.578125 1.0 -2.484375 2.859375q-0.890625 1.859375 -0.890625 4.390625q0 3.09375 1.09375 5.4375q1.109375 2.328125 2.96875 3.609375q1.859375 1.28125 4.15625 1.28125zm15.558426 1.59375l0 -20.671875l-1.921875 -1.65625l0 -0.21875l4.281246 -1.765625l0.203125 0l0 11.265625l0.125 0q1.21875 -1.03125 2.34375 -1.5q1.140625 -0.484375 2.453125 -0.484375q1.640625 0 2.875 0.828125q1.25 0.828125 1.96875 2.359375q0.734375 1.515625 0.734375 3.625q0 2.625 -1.0 4.46875q-0.984375 1.84375 -2.6875 2.796875q-1.703125 0.953125 -3.8125 0.953125q-1.3125 0 -2.453125 -0.234375q-1.125 -0.234375 -2.1249962 -0.59375l-0.796875 0.828125l-0.1875 0zm5.734371 -12.828125q-0.78125 0 -1.59375 0.25q-0.8125 0.234375 -1.578125 0.71875l0 9.015625q0.890625 0.703125 1.796875 1.015625q0.921875 0.296875 2.046875 0.296875q1.109375 0 2.03125 -0.59375q0.9375 -0.59375 1.5 -1.90625q0.5625 -1.3125 0.5625 -3.453125q0 -2.78125 -1.390625 -4.0625q-1.390625 -1.28125 -3.375 -1.28125zm15.701294 12.828125q-1.5 0 -2.59375 -0.25q-1.078125 -0.25 -2.203125 -0.828125l0 -3.59375l0.453125 0l1.015625 1.765625q1.0 1.765625 3.234375 1.765625q1.28125 0 2.0 -0.609375q0.71875 -0.609375 0.71875 -1.671875q0 -0.921875 -0.453125 -1.4375q-0.4375 -0.515625 -1.265625 -0.90625q-0.8125 -0.40625 -1.921875 -0.921875q-1.640625 -0.734375 -2.515625 -1.609375q-0.875 -0.875 -0.875 -2.484375q0 -1.171875 0.671875 -2.125q0.671875 -0.96875 1.703125 -1.546875q1.046875 -0.578125 2.15625 -0.578125q1.1875 0 2.171875 0.296875q1.0 0.28125 2.03125 0.796875l0 3.484375l-0.453125 0l-1.0625 -1.703125q-0.53125 -0.859375 -1.171875 -1.234375q-0.640625 -0.390625 -1.375 -0.390625q-1.09375 0 -1.75 0.546875q-0.65625 0.53125 -0.65625 1.5q0 1.078125 0.78125 1.640625q0.78125 0.5625 2.296875 1.265625q0.890625 0.453125 1.796875 0.90625q0.921875 0.4375 1.5 1.265625q0.59375 0.8125 0.59375 2.3125q0 1.40625 -0.765625 2.390625q-0.765625 0.96875 -1.890625 1.46875q-1.109375 0.484375 -2.171875 0.484375zm15.292786 0q-3.09375 0 -4.890625 -1.875q-1.796875 -1.890625 -1.796875 -5.0q0 -2.390625 0.9375 -4.234375q0.953125 -1.84375 2.5 -2.875q1.5625 -1.046875 3.390625 -1.046875q2.515625 0 3.96875 1.765625q1.46875 1.75 1.46875 5.046875l-0.15625 0.15625l-9.578125 0q0.03125 1.484375 0.578125 2.78125q0.546875 1.28125 1.734375 2.09375q1.203125 0.796875 3.21875 0.796875q1.765625 0 4.140625 -1.28125l0.09375 0l0 0.3125q-0.734375 1.390625 -2.203125 2.375q-1.453125 0.984375 -3.40625 0.984375zm-0.375 -13.625q-1.53125 0 -2.515625 1.078125q-0.96875 1.0625 -1.203125 3.015625l7.234375 0q-0.34375 -2.171875 -1.234375 -3.125q-0.875 -0.96875 -2.28125 -0.96875zm9.238037 13.3125l0 -0.515625l2.03125 -1.015625l0 -9.546875l-1.921875 -1.65625l0 -0.21875l3.96875 -1.765625l0.1875 0l0.28125 2.71875l0.140625 0q0.734375 -1.1875 1.34375 -1.78125q0.625 -0.59375 1.171875 -0.765625q0.546875 -0.171875 1.09375 -0.171875q0.25 0 0.578125 0.09375q0.34375 0.09375 0.578125 0.1875q0.34375 0.171875 0.640625 0.390625q0.3125 0.21875 0.3125 0.515625q0 0.28125 -0.125 0.578125l-0.640625 1.5625l-0.21875 0l-1.21875 -0.484375q-0.359375 -0.15625 -0.703125 -0.1875q-0.328125 -0.03125 -0.640625 -0.03125q-1.34375 0 -2.28125 1.375l0 9.1875l2.28125 1.015625l0 0.515625l-6.859375 0zm18.3134 0l-5.859375 -12.890625l-2.140625 -1.0l0 -0.515625l7.640625 0l0 0.515625l-2.625 0.96875l0 0.1875l4.109375 8.921875l0.125 0l3.609375 -8.734375l0 -0.1875l-2.296875 -1.15625l0 -0.515625l6.265625 0l0 0.515625l-2.359375 1.125l-5.796875 12.765625l-0.671875 0zm16.375656 0.3125q-3.09375 0 -4.890625 -1.875q-1.796875 -1.890625 -1.796875 -5.0q0 -2.390625 0.9375 -4.234375q0.953125 -1.84375 2.5 -2.875q1.5625 -1.046875 3.390625 -1.046875q2.5156403 0 3.9687653 1.765625q1.46875 1.75 1.46875 5.046875l-0.15625 0.15625l-9.57814 0q0.03125 1.484375 0.578125 2.78125q0.546875 1.28125 1.734375 2.09375q1.203125 0.796875 3.21875 0.796875q1.7656403 0 4.1406403 -1.28125l0.09375 0l0 0.3125q-0.734375 1.390625 -2.203125 2.375q-1.453125 0.984375 -3.4062653 0.984375zm-0.375 -13.625q-1.53125 0 -2.515625 1.078125q-0.96875 1.0625 -1.203125 3.015625l7.2343903 0q-0.34375 -2.171875 -1.234375 -3.125q-0.87501526 -0.96875 -2.2812653 -0.96875zm9.238052 13.3125l0 -0.515625l2.03125 -1.015625l0 -9.546875l-1.921875 -1.65625l0 -0.21875l3.96875 -1.765625l0.1875 0l0.28125 2.71875l0.140625 0q0.734375 -1.1875 1.34375 -1.78125q0.625 -0.59375 1.171875 -0.765625q0.546875 -0.171875 1.09375 -0.171875q0.25 0 0.578125 0.09375q0.34375 0.09375 0.578125 0.1875q0.34375 0.171875 0.640625 0.390625q0.3125 0.21875 0.3125 0.515625q0 0.28125 -0.125 0.578125l-0.640625 1.5625l-0.21875 0l-1.21875 -0.484375q-0.359375 -0.15625 -0.703125 -0.1875q-0.328125 -0.03125 -0.640625 -0.03125q-1.34375 0 -2.28125 1.375l0 9.1875l2.28125 1.015625l0 0.515625l-6.859375 0z" fill-rule="nonzero"/></g><path fill="#000000" fill-opacity="0.0" d="m63.628056 214.4757l61.57516 -35.566452" fill-rule="evenodd"/><path stroke="#ffffff" stroke-width="4.0" stroke-linejoin="round" stroke-linecap="butt" d="m63.628056 214.4757l61.57516 -35.566452" fill-rule="evenodd"/><path fill="#000000" fill-opacity="0.0" d="m63.178337 214.47499l61.575157 35.566467" fill-rule="evenodd"/><path stroke="#ffffff" stroke-width="4.0" stroke-linejoin="round" stroke-linecap="butt" d="m63.178337 214.47499l61.575157 35.566467" fill-rule="evenodd"/><path fill="#000000" fill-opacity="0.0" d="m113.735374 185.26395l0 0c7.785141 7.785141 12.158791 18.34407 12.158791 29.353912c0 11.009857 -4.3736496 21.568787 -12.158791 29.353928l-29.35392 -29.353928z" fill-rule="evenodd"/><path fill="#000000" fill-opacity="0.0" d="m113.735374 185.26395l0 0c7.785141 7.785141 12.158791 18.34407 12.158791 29.353912c0 11.009857 -4.3736496 21.568787 -12.158791 29.353928" fill-rule="evenodd"/><path stroke="#ffffff" stroke-width="4.0" stroke-linejoin="round" stroke-linecap="butt" d="m113.735374 185.26395l0 0c7.785141 7.785141 12.158791 18.34407 12.158791 29.353912c0 11.009857 -4.3736496 21.568787 -12.158791 29.353928" fill-rule="evenodd"/><path fill="#000000" fill-opacity="0.0" d="m118.05195 191.61156l0 0c-8.255508 5.1004944 -13.146896 14.231873 -12.818748 23.930374c0.3281479 9.698486 5.8255615 18.478363 14.406944 23.009186l12.631493 -23.924042z" fill-rule="evenodd"/><path fill="#000000" fill-opacity="0.0" d="m118.05195 191.61156l0 0c-8.255508 5.1004944 -13.146896 14.231873 -12.818748 23.930374c0.3281479 9.698486 5.8255615 18.478363 14.406944 23.009186" fill-rule="evenodd"/><path stroke="#ffffff" stroke-width="3.0" stroke-linejoin="round" stroke-linecap="butt" d="m118.05195 191.61156l0 0c-8.255508 5.1004944 -13.146896 14.231873 -12.818748 23.930374c0.3281479 9.698486 5.8255615 18.478363 14.406944 23.009186" fill-rule="evenodd"/><path fill="#000000" fill-opacity="0.0" d="m125.45864 208.73149c-2.5334167 0.8734436 -4.223709 3.2700043 -4.196266 5.9496307c0.027442932 2.6796265 1.766449 5.0410614 4.31723 5.862442l1.9083252 -5.926193z" fill-rule="evenodd"/><path fill="#000000" fill-opacity="0.0" d="m125.45864 208.73149c-2.5334167 0.8734436 -4.223709 3.2700043 -4.196266 5.9496307c0.027442932 2.6796265 1.766449 5.0410614 4.31723 5.862442" fill-rule="evenodd"/><path stroke="#ffffff" stroke-width="8.0" stroke-linejoin="round" stroke-linecap="butt" d="m125.45864 208.73149c-2.5334167 0.8734436 -4.223709 3.2700043 -4.196266 5.9496307c0.027442932 2.6796265 1.766449 5.0410614 4.31723 5.862442" fill-rule="evenodd"/><path fill="#ffffff" d="m61.250866 214.6181l0 0c0 -1.0562134 0.8562279 -1.9124451 1.9124336 -1.9124451l0 0c0.5072098 0 0.9936447 0.20149231 1.3522949 0.56015015c0.3586502 0.35864258 0.5601349 0.8450775 0.5601349 1.3522949l0 0c0 1.0561981 -0.85622406 1.9124298 -1.9124298 1.9124298l0 0c-1.0562057 0 -1.9124336 -0.8562317 -1.9124336 -1.9124298z" fill-rule="evenodd"/><path fill="#000000" fill-opacity="0.0" d="m481.3192 418.77734l0 0c0 -4.569153 -1.815094 -8.951141 -5.0459595 -12.182007c-3.2308655 -3.2308655 -7.6128845 -5.0459595 -12.182007 -5.0459595l0 17.227966z" fill-rule="evenodd"/><path fill="#000000" fill-opacity="0.0" d="m481.3192 418.77734l0 0c0 -4.569153 -1.815094 -8.951141 -5.0459595 -12.182007c-3.2308655 -3.2308655 -7.6128845 -5.0459595 -12.182007 -5.0459595" fill-rule="evenodd"/><path stroke="#ffffff" stroke-width="4.0" stroke-linejoin="round" stroke-linecap="butt" d="m481.3192 418.77734l0 0c0 -4.569153 -1.815094 -8.951141 -5.0459595 -12.182007c-3.2308655 -3.2308655 -7.6128845 -5.0459595 -12.182007 -5.0459595" fill-rule="evenodd"/><path fill="#000000" fill-opacity="0.0" d="m498.54718 436.00397l0 0c4.5691223 0 8.951141 -1.8150635 12.182007 -5.0459595c3.230896 -3.2308655 5.0459595 -7.612854 5.0459595 -12.182007l-17.227966 0z" fill-rule="evenodd"/><path fill="#000000" fill-opacity="0.0" d="m498.54718 436.00397l0 0c4.5691223 0 8.951141 -1.8150635 12.182007 -5.0459595c3.230896 -3.2308655 5.0459595 -7.612854 5.0459595 -12.182007" fill-rule="evenodd"/><path stroke="#ffffff" stroke-width="4.0" stroke-linejoin="round" stroke-linecap="butt" d="m498.54718 436.00397l0 0c4.5691223 0 8.951141 -1.8150635 12.182007 -5.0459595c3.230896 -3.2308655 5.0459595 -7.612854 5.0459595 -12.182007" fill-rule="evenodd"/><path fill="#000000" fill-opacity="0.0" d="m498.54718 436.00397l0 0c-4.569153 0 -8.951141 -1.8150635 -12.182037 -5.0459595c-3.2308655 -3.2308655 -5.045929 -7.612854 -5.045929 -12.182007l17.227966 0z" fill-rule="evenodd"/><path fill="#000000" fill-opacity="0.0" d="m498.54718 436.00397l0 0c-4.569153 0 -8.951141 -1.8150635 -12.182037 -5.0459595c-3.2308655 -3.2308655 -5.045929 -7.612854 -5.045929 -12.182007" fill-rule="evenodd"/><path stroke="#ffffff" stroke-width="4.0" stroke-linejoin="round" stroke-linecap="butt" d="m498.54718 436.00397l0 0c-4.569153 0 -8.951141 -1.8150635 -12.182037 -5.0459595c-3.2308655 -3.2308655 -5.045929 -7.612854 -5.045929 -12.182007" fill-rule="evenodd"/><path fill="#000000" fill-opacity="0.0" d="m515.77515 418.77734l0 0c0 -4.569153 1.8150635 -8.951141 5.0459595 -12.182007c3.230835 -3.2308655 7.612854 -5.0459595 12.182007 -5.0459595l0 17.227966z" fill-rule="evenodd"/><path fill="#000000" fill-opacity="0.0" d="m515.77515 418.77734l0 0c0 -4.569153 1.8150635 -8.951141 5.0459595 -12.182007c3.230835 -3.2308655 7.612854 -5.0459595 12.182007 -5.0459595" fill-rule="evenodd"/><path stroke="#ffffff" stroke-width="4.0" stroke-linejoin="round" stroke-linecap="butt" d="m515.77515 418.77734l0 0c0 -4.569153 1.8150635 -8.951141 5.0459595 -12.182007c3.230835 -3.2308655 7.612854 -5.0459595 12.182007 -5.0459595" fill-rule="evenodd"/><path fill="#000000" fill-opacity="0.0" d="m344.04456 465.61188l0 0c0 4.5691223 -1.815094 8.951141 -5.0459595 12.182007c-3.230896 3.2308655 -7.6128845 5.0459595 -12.182037 5.0459595l0 -17.227966z" fill-rule="evenodd"/><path fill="#000000" fill-opacity="0.0" d="m344.04456 465.61188l0 0c0 4.5691223 -1.815094 8.951141 -5.0459595 12.182007c-3.230896 3.2308655 -7.6128845 5.0459595 -12.182037 5.0459595" fill-rule="evenodd"/><path stroke="#ffffff" stroke-width="4.0" stroke-linejoin="round" stroke-linecap="butt" d="m344.04456 465.61188l0 0c0 4.5691223 -1.815094 8.951141 -5.0459595 12.182007c-3.230896 3.2308655 -7.6128845 5.0459595 -12.182037 5.0459595" fill-rule="evenodd"/><path fill="#000000" fill-opacity="0.0" d="m361.27252 400.86502l0 0c-4.569153 0 -8.951141 1.815094 -12.182037 5.0459595c-3.2308655 3.2308655 -5.045929 7.6128845 -5.045929 12.182007l17.227966 0z" fill-rule="evenodd"/><path fill="#000000" fill-opacity="0.0" d="m361.27252 400.86502l0 0c-4.569153 0 -8.951141 1.815094 -12.182037 5.0459595c-3.2308655 3.2308655 -5.045929 7.6128845 -5.045929 12.182007" fill-rule="evenodd"/><path stroke="#ffffff" stroke-width="4.0" stroke-linejoin="round" stroke-linecap="butt" d="m361.27252 400.86502l0 0c-4.569153 0 -8.951141 1.815094 -12.182037 5.0459595c-3.2308655 3.2308655 -5.045929 7.6128845 -5.045929 12.182007" fill-rule="evenodd"/><path fill="#000000" fill-opacity="0.0" d="m344.04456 418.093l0 47.505493" fill-rule="evenodd"/><path stroke="#ffffff" stroke-width="4.0" stroke-linejoin="round" stroke-linecap="butt" d="m344.04456 418.093l0 47.505493" fill-rule="evenodd"/><path fill="#000000" fill-opacity="0.0" d="m250.73174 401.3043l0 0c4.5691376 0 8.951157 1.815094 12.182022 5.0459595c3.2308655 3.2308655 5.0459595 7.6128845 5.0459595 12.182007l-17.227982 0z" fill-rule="evenodd"/><path fill="#000000" fill-opacity="0.0" d="m250.73174 401.3043l0 0c4.5691376 0 8.951157 1.815094 12.182022 5.0459595c3.2308655 3.2308655 5.0459595 7.6128845 5.0459595 12.182007" fill-rule="evenodd"/><path stroke="#ffffff" stroke-width="4.0" stroke-linejoin="round" stroke-linecap="butt" d="m250.73174 401.3043l0 0c4.5691376 0 8.951157 1.815094 12.182022 5.0459595c3.2308655 3.2308655 5.0459595 7.6128845 5.0459595 12.182007" fill-rule="evenodd"/><path fill="#000000" fill-opacity="0.0" d="m285.19302 482.83984l0 0c-4.5691223 0 -8.951141 -1.815094 -12.182007 -5.0459595c-3.2308655 -3.2308655 -5.0459595 -7.6128845 -5.0459595 -12.182007l17.227966 0z" fill-rule="evenodd"/><path fill="#000000" fill-opacity="0.0" d="m285.19302 482.83984l0 0c-4.5691223 0 -8.951141 -1.815094 -12.182007 -5.0459595c-3.2308655 -3.2308655 -5.0459595 -7.6128845 -5.0459595 -12.182007" fill-rule="evenodd"/><path stroke="#ffffff" stroke-width="4.0" stroke-linejoin="round" stroke-linecap="butt" d="m285.19302 482.83984l0 0c-4.5691223 0 -8.951141 -1.815094 -12.182007 -5.0459595c-3.2308655 -3.2308655 -5.0459595 -7.6128845 -5.0459595 -12.182007" fill-rule="evenodd"/><path fill="#000000" fill-opacity="0.0" d="m267.95972 418.53226l0 47.087646" fill-rule="evenodd"/><path stroke="#ffffff" stroke-width="4.0" stroke-linejoin="round" stroke-linecap="butt" d="m267.95972 418.53226l0 47.087646" fill-rule="evenodd"/><path fill="#000000" fill-opacity="0.0" d="m694.5046 465.39224l0 0c0 4.5691223 -1.8150635 8.951141 -5.0459595 12.182007c-3.230835 3.2308655 -7.612854 5.0459595 -12.182007 5.0459595l0 -17.227966z" fill-rule="evenodd"/><path fill="#000000" fill-opacity="0.0" d="m694.5046 465.39224l0 0c0 4.5691223 -1.8150635 8.951141 -5.0459595 12.182007c-3.230835 3.2308655 -7.612854 5.0459595 -12.182007 5.0459595" fill-rule="evenodd"/><path stroke="#ffffff" stroke-width="4.0" stroke-linejoin="round" stroke-linecap="butt" d="m694.5046 465.39224l0 0c0 4.5691223 -1.8150635 8.951141 -5.0459595 12.182007c-3.230835 3.2308655 -7.612854 5.0459595 -12.182007 5.0459595" fill-rule="evenodd"/><path fill="#000000" fill-opacity="0.0" d="m711.73254 400.6454l0 0c-4.569092 0 -8.951111 1.815094 -12.182007 5.0459595c-3.230835 3.2308655 -5.0459595 7.6128845 -5.0459595 12.182007l17.227966 0z" fill-rule="evenodd"/><path fill="#000000" fill-opacity="0.0" d="m711.73254 400.6454l0 0c-4.569092 0 -8.951111 1.815094 -12.182007 5.0459595c-3.230835 3.2308655 -5.0459595 7.6128845 -5.0459595 12.182007" fill-rule="evenodd"/><path stroke="#ffffff" stroke-width="4.0" stroke-linejoin="round" stroke-linecap="butt" d="m711.73254 400.6454l0 0c-4.569092 0 -8.951111 1.815094 -12.182007 5.0459595c-3.230835 3.2308655 -5.0459595 7.6128845 -5.0459595 12.182007" fill-rule="evenodd"/><path fill="#000000" fill-opacity="0.0" d="m694.5046 417.87335l0 47.505493" fill-rule="evenodd"/><path stroke="#ffffff" stroke-width="4.0" stroke-linejoin="round" stroke-linecap="butt" d="m694.5046 417.87335l0 47.505493" fill-rule="evenodd"/><path fill="#000000" fill-opacity="0.0" d="m633.6255 400.86502l0 0c4.569153 0 8.951111 1.815094 12.182007 5.0459595c3.230896 3.2308655 5.0459595 7.6128845 5.0459595 12.182007l-17.227966 0z" fill-rule="evenodd"/><path fill="#000000" fill-opacity="0.0" d="m633.6255 400.86502l0 0c4.569153 0 8.951111 1.815094 12.182007 5.0459595c3.230896 3.2308655 5.0459595 7.6128845 5.0459595 12.182007" fill-rule="evenodd"/><path stroke="#ffffff" stroke-width="4.0" stroke-linejoin="round" stroke-linecap="butt" d="m633.6255 400.86502l0 0c4.569153 0 8.951111 1.815094 12.182007 5.0459595c3.230896 3.2308655 5.0459595 7.6128845 5.0459595 12.182007" fill-rule="evenodd"/><path fill="#000000" fill-opacity="0.0" d="m668.0868 482.40057l0 0c-4.569153 0 -8.951172 -1.815094 -12.182007 -5.0459595c-3.230896 -3.2308655 -5.0459595 -7.6128845 -5.0459595 -12.182007l17.227966 0z" fill-rule="evenodd"/><path fill="#000000" fill-opacity="0.0" d="m668.0868 482.40057l0 0c-4.569153 0 -8.951172 -1.815094 -12.182007 -5.0459595c-3.230896 -3.2308655 -5.0459595 -7.6128845 -5.0459595 -12.182007" fill-rule="evenodd"/><path stroke="#ffffff" stroke-width="4.0" stroke-linejoin="round" stroke-linecap="butt" d="m668.0868 482.40057l0 0c-4.569153 0 -8.951172 -1.815094 -12.182007 -5.0459595c-3.230896 -3.2308655 -5.0459595 -7.6128845 -5.0459595 -12.182007" fill-rule="evenodd"/><path fill="#000000" fill-opacity="0.0" d="m650.85345 418.093l0 47.087646" fill-rule="evenodd"/><path stroke="#ffffff" stroke-width="4.0" stroke-linejoin="round" stroke-linecap="butt" d="m650.85345 418.093l0 47.087646" fill-rule="evenodd"/><path fill="#000000" fill-opacity="0.0" d="m668.0868 482.40057l9.192505 0.22497559" fill-rule="evenodd"/><path stroke="#ffffff" stroke-width="4.0" stroke-linejoin="round" stroke-linecap="butt" d="m668.0868 482.40057l9.192505 0.22497559" fill-rule="evenodd"/><path fill="#000000" fill-opacity="0.0" d="m633.6255 400.86502l-100.6358 0.6749878" fill-rule="evenodd"/><path stroke="#ffffff" stroke-width="4.0" stroke-linejoin="round" stroke-linecap="butt" d="m633.6255 400.86502l-100.6358 0.6749878" fill-rule="evenodd"/><path fill="#000000" fill-opacity="0.0" d="m464.09125 401.54938l-102.82141 -0.6749878" fill-rule="evenodd"/><path stroke="#ffffff" stroke-width="4.0" stroke-linejoin="round" stroke-linecap="butt" d="m464.09125 401.54938l-102.82141 -0.6749878" fill-rule="evenodd"/><path fill="#000000" fill-opacity="0.0" d="m326.81656 482.83984l-41.623535 0" fill-rule="evenodd"/><path stroke="#ffffff" stroke-width="4.0" stroke-linejoin="round" stroke-linecap="butt" d="m326.81656 482.83984l-41.623535 0" fill-rule="evenodd"/><path fill="#000000" fill-opacity="0.0" d="m250.73174 401.3043l-95.13953 0" fill-rule="evenodd"/><path stroke="#ffffff" stroke-width="4.0" stroke-linejoin="round" stroke-linecap="butt" d="m250.73174 401.3043l-71.13953 0" fill-rule="evenodd"/><path fill="#ffffff" stroke="#ffffff" stroke-width="4.0" stroke-linecap="butt" d="m179.59221 394.69736l-18.15239 6.6069336l18.15239 6.6069336z" fill-rule="evenodd"/><path fill="#000000" fill-opacity="0.0" d="m711.73254 400.6454l51.523193 0" fill-rule="evenodd"/><path stroke="#ffffff" stroke-width="4.0" stroke-linejoin="round" stroke-linecap="butt" d="m711.73254 400.6454l51.523193 0" fill-rule="evenodd"/><path fill="#000000" fill-opacity="0.0" d="m125.53214 400.63l0 82.33072" fill-rule="evenodd"/><path stroke="#ffffff" stroke-width="2.0" stroke-linejoin="round" stroke-linecap="butt" d="m125.53214 400.63l0 82.33072" fill-rule="evenodd"/><path fill="#000000" fill-opacity="0.0" d="m119.97135 400.66486l11.118111 0" fill-rule="evenodd"/><path stroke="#ffffff" stroke-width="2.0" stroke-linejoin="round" stroke-linecap="butt" d="m119.97135 400.66486l11.118111 0" fill-rule="evenodd"/><path fill="#000000" fill-opacity="0.0" d="m119.97135 482.86325l11.118111 0" fill-rule="evenodd"/><path stroke="#ffffff" stroke-width="2.0" stroke-linejoin="round" stroke-linecap="butt" d="m119.97135 482.86325l11.118111 0" fill-rule="evenodd"/><g filter="url(#shadowFilter-g22f848dfb58_0_410.3)"><use xlink:href="#g22f848dfb58_0_410.3" transform="matrix(1.0 0.0 0.0 1.0 0.0 12.0)"/></g><defs><filter id="shadowFilter-g22f848dfb58_0_410.3" filterUnits="userSpaceOnUse"><feGaussianBlur in="SourceAlpha" stdDeviation="5.0" result="blur"/><feComponentTransfer in="blur" color-interpolation-filters="sRGB"><feFuncR type="linear" slope="0" intercept="0.0"/><feFuncG type="linear" slope="0" intercept="0.0"/><feFuncB type="linear" slope="0" intercept="0.0"/><feFuncA type="linear" slope="0.5" intercept="0"/></feComponentTransfer></filter></defs><g id="g22f848dfb58_0_410.3"><path fill="#000000" fill-opacity="0.0" d="m58.06343 483.91327l0 -84.25195l61.921257 0l0 84.25195z" fill-rule="evenodd"/><path fill="#e8eaed" d="m87.543434 461.1383l-0.34375 0l-0.84375 -1.703125l-11.6875 0l-0.859375 1.703125l-0.34375 0l0 -10.21875l3.671875 0l0 0.34375l-2.5 1.328125l0 4.921875l5.0625 0l0 -3.40625l-1.78125 -1.0625l0 -0.34375l4.671875 0l0 0.34375l-1.71875 1.0625l0 3.40625l5.484375 0l0.84375 -1.921875l0.34375 0l0 5.546875zm0 -12.215729l-0.34375 0l-0.6875 -1.34375l-12.53125 0l-1.109375 1.28125l-0.15625 0l-1.171875 -2.859375l0 -0.125l14.96875 0l0.6875 -1.34375l0.34375 0l0 4.390625zm0.21875 -10.129883q0 1.25 -0.625 2.0625q-0.640625 0.796875 -1.875 0.796875l-6.3125 0l-0.65625 1.34375l-0.34375 0l0 -3.046875l6.3125 0q0.9375 0 1.4375 -0.578125q0.484375 -0.59375 0.484375 -1.546875q0 -0.5625 -0.1875 -1.25q-0.203125 -0.703125 -0.5625 -1.109375l-6.484375 0l-0.65625 1.515625l-0.34375 0l0 -3.21875l8.640625 0l0.609375 -1.515625l0.34375 0l0 3.21875l-1.34375 0l0 0.109375q0.8125 0.8125 1.1875 1.578125q0.375 0.75 0.375 1.640625zm-0.21875 -7.7151184l-0.34375 0l-0.75 -1.15625l-3.65625 -2.796875l-3.84375 2.84375l-0.65625 1.0l-0.34375 0l0 -4.421875l0.34375 0l0.640625 1.453125l0.125 0l2.6875 -1.984375l-2.5625 -1.734375l-0.125 0l-0.765625 1.21875l-0.34375 0l0 -3.53125l0.34375 0l0.734375 1.125l3.296875 2.5l4.21875 -3.125l0.65625 -0.875l0.34375 0l0 4.140625l-0.34375 0l-0.640625 -1.296875l-0.125 0l-3.046875 2.265625l2.921875 1.953125l0.125 0l0.765625 -1.3125l0.34375 0l0 3.734375z" fill-rule="nonzero"/></g><g filter="url(#shadowFilter-g22f848dfb58_0_410.4)"><use xlink:href="#g22f848dfb58_0_410.4" transform="matrix(1.0 0.0 0.0 1.0 0.0 12.0)"/></g><defs><filter id="shadowFilter-g22f848dfb58_0_410.4" filterUnits="userSpaceOnUse"><feGaussianBlur in="SourceAlpha" stdDeviation="5.0" result="blur"/><feComponentTransfer in="blur" color-interpolation-filters="sRGB"><feFuncR type="linear" slope="0" intercept="0.0"/><feFuncG type="linear" slope="0" intercept="0.0"/><feFuncB type="linear" slope="0" intercept="0.0"/><feFuncA type="linear" slope="0.5" intercept="0"/></feComponentTransfer></filter></defs><g id="g22f848dfb58_0_410.4"><path fill="#000000" fill-opacity="0.0" d="m93.80674 379.91635l31.716537 0l0 41.51181l-31.716537 0z" fill-rule="evenodd"/><path fill="#e8eaed" d="m107.86032 406.83633l0 -0.296875l1.671875 -0.75l0 -9.453125l-3.265625 1.640625l0 -0.65625l4.484375 -2.796875l0.375 0l0 11.265625l1.484375 0.75l0 0.296875l-4.75 0z" fill-rule="nonzero"/></g><g filter="url(#shadowFilter-g22f848dfb58_0_410.5)"><use xlink:href="#g22f848dfb58_0_410.5" transform="matrix(1.0 0.0 0.0 1.0 0.0 12.0)"/></g><defs><filter id="shadowFilter-g22f848dfb58_0_410.5" filterUnits="userSpaceOnUse"><feGaussianBlur in="SourceAlpha" stdDeviation="5.0" result="blur"/><feComponentTransfer in="blur" color-interpolation-filters="sRGB"><feFuncR type="linear" slope="0" intercept="0.0"/><feFuncG type="linear" slope="0" intercept="0.0"/><feFuncB type="linear" slope="0" intercept="0.0"/><feFuncA type="linear" slope="0.5" intercept="0"/></feComponentTransfer></filter></defs><g id="g22f848dfb58_0_410.5"><path fill="#000000" fill-opacity="0.0" d="m93.80674 459.88885l31.716537 0l0 41.51181l-31.716537 0z" fill-rule="evenodd"/><path fill="#e8eaed" d="m109.67282 486.99634q-1.953125 0 -3.015625 -1.6875q-1.046875 -1.703125 -1.046875 -4.65625q0 -1.828125 0.515625 -3.25q0.515625 -1.4375 1.421875 -2.265625q0.921875 -0.828125 2.125 -0.828125q1.9375 0 2.984375 1.703125q1.0625 1.6875 1.0625 4.640625q0 1.828125 -0.53125 3.265625q-0.515625 1.421875 -1.421875 2.25q-0.90625 0.828125 -2.09375 0.828125zm0.390625 -0.875q0.609375 0 1.03125 -0.625q0.4375 -0.640625 0.671875 -1.75q0.234375 -1.109375 0.234375 -2.515625q0 -2.8125 -0.671875 -4.4375q-0.65625 -1.625 -1.984375 -1.625q-0.625 0 -1.078125 0.640625q-0.453125 0.625 -0.703125 1.734375q-0.234375 1.09375 -0.234375 2.5q0 2.8125 0.671875 4.453125q0.6875 1.625 2.0625 1.625z" fill-rule="nonzero"/></g><path fill="#2f1062" d="m362.36627 181.61647l125.66928 -48.53543l8.472443 21.952759l-125.66928 48.53543z" fill-rule="evenodd"/><path fill="#2f1062" d="m364.54672 234.54836l85.480316 49.38582l-11.779541 20.37796l-85.480316 -49.38582z" fill-rule="evenodd"/></g></svg>